<?xml version="1.0" standalone="no"?>
<!DOCTYPE svg PUBLIC "-//W3C//DTD SVG 20010904//EN"
 "http://www.w3.org/TR/2001/REC-SVG-20010904/DTD/svg10.dtd">
<svg version="1.0" xmlns="http://www.w3.org/2000/svg"
 width="500.000000pt" height="500.000000pt" viewBox="0 0 500.000000 500.000000"
 preserveAspectRatio="xMidYMid meet">

<g transform="translate(0.000000,500.000000) scale(0.100000,-0.100000)"
fill="#000000" stroke="none">
<path d="M2295 4320 c-615 -70 -1155 -450 -1435 -1010 -250 -498 -250 -1122
-1 -1619 95 -188 182 -311 331 -465 713 -739 1905 -739 2621 0 370 383 552
887 510 1416 -19 253 -79 464 -192 688 -95 185 -180 301 -339 460 -156 156
-270 241 -452 335 -178 92 -342 147 -543 181 -109 18 -390 26 -500 14z m453
-156 c553 -88 1009 -420 1257 -915 178 -353 224 -782 125 -1164 -171 -664
-728 -1161 -1400 -1251 -523 -69 -1036 101 -1409 469 -328 324 -501 736 -501
1197 0 462 173 874 501 1197 255 250 545 399 904 463 131 24 388 26 523 4z"/>
<path d="M2710 3853 c-24 -11 -66 -17 -130 -17 -58 -1 -104 -7 -119 -15 -17
-9 -44 -11 -90 -7 -75 7 -201 -18 -274 -55 -110 -57 -228 -172 -278 -274 -42
-85 -45 -146 -20 -341 23 -179 44 -251 97 -337 33 -54 35 -62 29 -110 -5 -34
-28 -92 -67 -167 -33 -63 -64 -124 -68 -136 -8 -20 -7 -21 29 -8 83 28 207
-32 349 -170 254 -246 318 -299 353 -294 21 3 24 12 35 87 9 65 19 93 43 128
17 24 31 56 31 71 1 39 24 97 54 136 l26 35 58 -21 c36 -13 93 -22 157 -25 93
-5 102 -4 129 18 48 38 57 73 38 146 -16 60 -16 63 3 77 18 13 18 15 3 38 -15
23 -15 26 -1 41 14 13 14 21 5 42 -7 14 -12 41 -12 59 0 32 3 35 57 52 45 15
60 25 67 45 8 23 -1 39 -72 140 -79 112 -80 114 -65 142 13 26 13 35 -6 96
-17 57 -51 233 -51 268 0 6 20 38 45 71 25 33 45 64 45 69 0 5 -30 39 -67 74
-80 76 -169 131 -201 123 -13 -4 -31 2 -48 15 -32 25 -38 25 -84 4z"/>
<path d="M1388 2106 c-98 -50 -178 -95 -178 -101 0 -5 5 -17 10 -25 8 -13 21
-9 87 25 42 22 80 41 85 43 4 2 24 -31 45 -73 35 -69 40 -74 57 -62 17 13 16
17 -18 85 -20 39 -36 73 -36 75 0 6 120 61 124 56 2 -2 20 -37 40 -76 38 -76
41 -79 66 -63 13 8 7 25 -37 107 -28 54 -55 98 -60 99 -4 0 -88 -40 -185 -90z"/>
<path d="M3382 2147 c-19 -23 -52 -101 -52 -125 0 -35 52 -82 90 -82 26 0 43
11 81 50 52 54 63 58 97 34 30 -21 28 -47 -9 -112 -24 -42 -28 -57 -18 -63 18
-11 34 5 64 64 33 66 33 111 0 141 -51 47 -98 39 -161 -29 -31 -34 -45 -43
-62 -38 -50 13 -52 50 -7 118 21 30 24 40 13 46 -18 12 -24 11 -36 -4z"/>
<path d="M3259 1928 c-7 -17 -12 -45 -11 -62 2 -28 2 -29 -16 -13 -18 16 -20
16 -36 -2 -16 -18 -12 -23 104 -120 67 -55 125 -101 130 -101 9 0 35 29 29 33
-16 11 -148 124 -161 140 -22 24 -23 75 -2 105 9 13 14 24 13 25 -2 2 -11 8
-20 15 -14 11 -18 8 -30 -20z"/>
<path d="M1662 1848 c-9 -9 -1 -22 33 -55 50 -48 55 -68 24 -107 l-22 -28 -46
45 c-63 61 -90 77 -127 77 -43 0 -94 -50 -94 -92 0 -59 65 -126 127 -131 28
-2 29 -4 20 -25 -8 -16 -7 -26 1 -34 10 -10 34 9 107 82 126 125 129 147 42
238 -45 46 -48 47 -65 30z m-46 -169 c47 -47 47 -49 30 -68 -28 -31 -51 -34
-100 -13 -69 31 -87 84 -41 120 34 27 53 20 111 -39z"/>
<path d="M3055 1721 c-70 -32 -111 -95 -99 -149 9 -39 48 -103 81 -134 65 -62
129 -57 212 18 44 40 49 48 40 66 -10 19 -13 19 -52 -20 -47 -44 -76 -62 -105
-62 -23 0 -72 37 -72 53 1 7 38 41 84 77 l84 65 -17 28 c-36 64 -97 86 -156
58z m95 -56 l23 -25 -24 -19 c-13 -10 -44 -35 -69 -55 -50 -40 -65 -36 -76 21
-6 28 -2 37 29 68 43 43 83 46 117 10z"/>
<path d="M2740 1640 c-12 -8 -13 -14 -2 -42 12 -32 8 -40 -22 -51 -5 -2 -7
-11 -3 -20 5 -13 13 -16 30 -12 22 6 26 0 61 -98 44 -123 68 -152 118 -142 48
11 68 23 62 40 -5 11 -16 13 -43 9 -46 -7 -50 -3 -89 106 -42 113 -42 111 -5
124 33 11 38 17 31 38 -4 10 -13 10 -42 1 -37 -12 -38 -11 -52 23 -15 36 -20
39 -44 24z"/>
<path d="M1879 1618 c-43 -29 -99 -136 -99 -189 0 -28 8 -47 30 -73 33 -37
109 -72 135 -63 25 10 17 34 -12 40 -16 3 -44 16 -63 29 -32 22 -35 29 -34 70
0 33 9 60 30 95 45 73 91 80 167 29 36 -24 37 -25 47 -6 9 17 5 23 -28 45 -38
25 -92 45 -123 45 -9 0 -31 -10 -50 -22z"/>
<path d="M2182 1525 c-42 -18 -73 -85 -79 -169 -8 -107 45 -154 175 -155 56
-1 62 1 62 19 0 17 -7 20 -50 20 -60 0 -114 20 -129 48 -11 21 -15 65 -6 73 2
3 53 0 112 -7 59 -6 109 -10 111 -9 11 9 11 104 0 124 -32 59 -129 87 -196 56z
m139 -51 c12 -11 19 -30 19 -52 l0 -35 -87 7 c-48 3 -89 8 -91 11 -9 8 21 66
42 81 26 19 90 13 117 -12z"/>
<path d="M2523 1514 c-35 -18 -48 -42 -44 -89 3 -43 28 -63 96 -76 63 -11 85
-28 85 -66 0 -30 -50 -53 -115 -53 -38 0 -45 -3 -45 -20 0 -17 7 -20 43 -20
54 0 109 16 137 38 25 20 30 84 11 121 -12 21 -66 41 -113 41 -31 0 -58 23
-58 50 0 34 28 50 86 50 47 0 54 2 54 20 0 17 -7 20 -52 20 -29 0 -67 -8 -85
-16z"/>
</g>
</svg>
